# xmcd
#
# Track frame offsets: 
#        150
#        19507
#        42681
#        75240
#        97668
#
# Disc length: 1650 seconds
#
# Revision: 0
# Processed by: cddbd v1.5.2PL0 Copyright (c) Steve Scherf et al.
# Submitted via: ExactAudioCopyFreeDBPlugin 1.0
#
DISCID=28067005
DTITLE=Rhonda Clark - Rhonda Clark - Expanded Edition - CD2
DYEAR=1992
DGENRE=R&B
TTITLE0=(If Loving You Is Wrong) I Don't Want to Be Right (Edit)
TTITLE1=(If Loving You Is Wrong) I Don't Want to Be Right (Instrumenta
TTITLE1=l)
TTITLE2=Must Be Real Love (Extended Dance Mix)
TTITLE3=Must Be Real Love (Retro Bass Mix – Radio Edit)
TTITLE4=Must Be Real Love (Dub Mix)
EXTD=
EXTT0=
EXTT1=
EXTT2=
EXTT3=
EXTT4=
PLAYORDER=
